<?xml version="1.0" encoding="utf-8"?>
<?xml-stylesheet type="text/xsl" href="rss1.xsl"?>
<rss version="2.0" xmlns:atom="http://www.w3.org/2005/Atom" xmlns:content="http://purl.org/rss/1.0/modules/content/" xmlns:dc="http://purl.org/dc/elements/1.1/" xmlns:media="http://search.yahoo.com/mrss/">
<channel>
 <title>Getty</title>
 <link>http://www.gettyimg.com/</link>
 <atom:link href="http://www.gettyimg.com/" rel="self" type="application/rss+xml" />

 
                <item>
                <title><![CDATA[【Music Videos】Depeche Mode - Never Let Me Down Again (1080p 5.1) VJ-RoGeRs Video Edit (Clean)]]></title>
                <link><![CDATA[https://sharemania.us/threads/depeche-mode-never-let-me-down-again-1080p-5-1-vj-rogers-video-edit-clean.248462/]]></link>
                <description><![CDATA[<article>
<blockquote class="messageText SelectQuoteContainer ugc baseHtml">
<img src="https://i.ibb.co/6b2PPg0/Depeche-Mode-Never-Let-Me-Down-Again-1080p-5-1-VJ-Ro-Ge-Rs-Video-Edit-mp4-thumbs-2024-07-01-21-57-54.jpg" class="bbCodeImage LbImage" alt="[​IMG]" data-url="https://i.ibb.co/6b2PPg0/Depeche-Mode-Never-Let-Me-Down-Again-1080p-5-1-VJ-Ro-Ge-Rs-Video-Edit-mp4-thumbs-2024-07-01-21-57-54.jpg" style=""> <br>
<br>
<div class="ToggleTriggerAnchor bbCodeSpoilerContainer">
<button type="button" class="button bbCodeSpoilerButton ToggleTrigger Tooltip JsOnly" data-target="> .SpoilerTarget"><span>Spoiler: <span class="SpoilerTitle">MediaInfo</span></span></button>
<div class="SpoilerTarget bbCodeSpoilerText">Depeche Mode - Never Let Me Down Again (1080p 5.1) VJ-RoGeRs Video Edit.mp4<br>
Format : MPEG-4<br>
Format profile : Base Media / Version 2<br>
Codec ID : mp42 (mp42/mp41)<br>
File size : 354 MiB<br>
Duration : 4 min 47 s<br>
Overall bit rate mode : Variable<br>
Overall bit rate : 10.3 Mb/s<br>
Frame rate : 30.000 FPS<br>
Encoded date : 2024-07-02 00:52:20 UTC<br>
Tagged date : 2024-07-02 01:48:28 UTC<br>
TIM : 00:00:00:00<br>
TSC : 30<br>
TSZ : 1<br>
<br>
Video<br>
ID : 1<br>
Format : AVC<br>
Format/Info : Advanced Video Codec<br>
Format profile : Main@L4.1<br>
Format settings : CABAC / 4 Ref Frames<br>
Format settings, CABAC : Yes<br>
Format settings, Reference : 4 frames<br>
Codec ID : avc1<br>
Codec ID/Info : Advanced Video Coding<br>
Duration : 4 min 47 s<br>
Bit rate : 10 000 kb/s<br>
Width : 1 920 pixels<br>
Height : 1 080 pixels<br>
Display aspect ratio : 16:9<br>
Frame rate mode : Constant<br>
Frame rate : 30.000 FPS<br>
Color space : YUV<br>
Chroma subsampling : 4:2:0<br>
Bit depth : 8 bits<br>
Scan type : Progressive<br>
Bits/(Pixel*Frame) : 0.161<br>
Stream size : 343 MiB (97%)<br>
Language : English<br>
Encoded date : 2024-07-02 00:52:58 UTC<br>
Tagged date : 2024-07-02 00:52:58 UTC<br>
Color range : Limited<br>
Color primaries : BT.709<br>
Transfer characteristics : BT.709<br>
Matrix coefficients : BT.709<br>
Codec configuration box : avcC<br>
<br>
Audio<br>
ID : 2<br>
Format : AAC LC<br>
Format/Info : Advanced Audio Codec Low Complexity<br>
Codec ID : mp4a-40-2<br>
Duration : 4 min 47 s<br>
Source duration : 4 min 47 s<br>
Bit rate mode : Variable<br>
Bit rate : 317 kb/s<br>
Maximum bit rate : 362 kb/s<br>
Channel(s) : 6 channels<br>
Channel layout : C L R Ls Rs LFE<br>
Sampling rate : 48.0 kHz<br>
Frame rate : 46.875 FPS (1024 SPF)<br>
Compression mode : Lossy<br>
Stream size : 10.9 MiB (3%)<br>
Source stream size : 10.9 MiB (3%)<br>
Language : English<br>
Encoded date : 2024-07-02 00:52:49 UTC<br>
Tagged date : 2024-07-02 00:52:49 UTC</div>
</div><br>
<div class="bbCodeBlock bbCodeVfcHH HiddenContent">
<div class="attribution type">Hidden Content:</div>
<blockquote>You must reply before you can see the hidden data contained here.</blockquote>
</div>
<div class="messageTextEndMarker">&nbsp;</div>
</blockquote>
</article>]]></description>
                <author><![CDATA[DJ-RoGeRs-BS]]></author>
                </item>

                
                <item>
                <title><![CDATA[【HD Live Performances】WEB-RiP - Coldplay - Glastonbury 2024 (111 mins) (BBC 2024-06-28) WEB-RiP 1080p-50fps-TPF HDMania]]></title>
                <link><![CDATA[https://sharemania.us/threads/coldplay-glastonbury-2024-111-mins-bbc-2024-06-28-web-rip-1080p-50fps-tpf-hdmania.248463/]]></link>
                <description><![CDATA[<article>
<blockquote class="messageText SelectQuoteContainer ugc baseHtml">
<div style="text-align: center"><img src="https://i.postimg.cc/7hKgds76/Glastonbury-2024-Banner.png" class="bbCodeImage LbImage" alt="[​IMG]" data-url="https://i.postimg.cc/7hKgds76/Glastonbury-2024-Banner.png" style=""><br>
<b><span style="font-size: 18px">Coldplay - Glastonbury 2024 WEB-RiP 1080p-50fps-TPF HDMania</span></b><br>
<i><span style="font-size: 12px">A specular headline set from the festival's first ever fifth-time headliners.</span></i><br>
<img src="https://i.postimg.cc/285dhYRB/Glastonbury-2024-Half-Banner.png" class="bbCodeImage LbImage" alt="[​IMG]" data-url="https://i.postimg.cc/285dhYRB/Glastonbury-2024-Half-Banner.png" style=""><br>
<img src="https://i.postimg.cc/MTkmDSj8/Coldplay-Glastonbury-2024-111-mins-BBC-2024-06-28-WEB-Ri-P-1080p-50fps-TPF-HDMania-0-1920x10.jpg" class="bbCodeImage LbImage" alt="[​IMG]" data-url="https://i.postimg.cc/MTkmDSj8/Coldplay-Glastonbury-2024-111-mins-BBC-2024-06-28-WEB-Ri-P-1080p-50fps-TPF-HDMania-0-1920x10.jpg" style=""><br>
<img src="https://i.postimg.cc/269zbnNJ/Glastonbury-2024-1080-TPF-HDMania-00.png" class="bbCodeImage LbImage" alt="[​IMG]" data-url="https://i.postimg.cc/269zbnNJ/Glastonbury-2024-1080-TPF-HDMania-00.png" style=""><br>
<img src="https://i.postimg.cc/W4XLx5Tz/Coldplay-Glastonbury-2024-111-mins-BBC-2024-06-28-WEB-Ri-P-1080p-50fps-TPF-HDMania.jpg" class="bbCodeImage LbImage" alt="[​IMG]" data-url="https://i.postimg.cc/W4XLx5Tz/Coldplay-Glastonbury-2024-111-mins-BBC-2024-06-28-WEB-Ri-P-1080p-50fps-TPF-HDMania.jpg" style="">
<div class="ToggleTriggerAnchor bbCodeSpoilerContainer">
<button type="button" class="button bbCodeSpoilerButton ToggleTrigger Tooltip JsOnly" data-target="> .SpoilerTarget"><span>Spoiler: <span class="SpoilerTitle">MediaInfo.</span></span></button>
<div class="SpoilerTarget bbCodeSpoilerText">Size : 8.643 GB<br>
Duration : 01:50:54.01<br>
Mux type : MP4<br>
<b>Video:</b><br>
Encoding : H.264<br>
VideoStreamID : x201<br>
Frame rate : 50.00 fps<br>
Frame rate flag : Constant<br>
Encoding size : 1920 x 1080<br>
Aspect ratio : 16:9<br>
Header bit rate : 12.000 Mbps<br>
VBV buffer : 2928 KBytes<br>
Profile : High/4.2<br>
Progressive : Progressive<br>
Chroma : 4:2:0<br>
Entropy mode : CABAC<br>
Bit rate : 9.976 Mbps<br>
<b>Audio Stream: 1 (Primary)</b><br>
Codec : AAC<br>
Format : RAW<br>
Channels : 2.0<br>
Language : eng<br>
PID : x202<br>
PES Stream Id : xC0<br>
Sampling rate : 48000<br>
Sample size : 16 bits</div>
</div>
<div class="bbCodeBlock bbCodeVfcHH HiddenContent">
<div class="attribution type">Hidden Content:</div>
<blockquote>You must either reply or click 'Like' to see the hidden information contained here.</blockquote>
</div><b><span style="color: rgb(255, 0, 0)">Don't forget to <i>Like</i>, if you download...</span></b><br>
<br>
<span style="font-size: 15px">If you like, <i>like</i>... <img src="styles/default/xenforo/smilies/exciting-48.png" class="mceSmilie" alt=":D" title="Big Grin    :D">...I always <i>like</i>, back (if you leave a <i>reply</i>)... <img src="styles/default/xenforo/smilies/haha-48.png" class="mceSmilie" alt=":lol:" title="LOL    :lol:"><br>
<br>
Credit to the original capper/ripper: <b><i>Me</i></b></span>​</div>
<div class="messageTextEndMarker">&nbsp;</div>
</blockquote>
</article>]]></description>
                <author><![CDATA[ThePixelFarm]]></author>
                </item>

                </channel></rss>